<?xml version="1.0" encoding="utf-8"?>
<!-- Generator: Adobe Illustrator 25.2.1, SVG Export Plug-In . SVG Version: 6.00 Build 0)  -->
<svg version="1.1" id="Capa_1" xmlns="http://www.w3.org/2000/svg" xmlns:xlink="http://www.w3.org/1999/xlink" x="0px" y="0px"
	 viewBox="0 0 346.8 352.3" style="enable-background:new 0 0 346.8 352.3;" xml:space="preserve">
<style type="text/css">
	.st0{fill:#FFFFFF;}
	.st1{fill:#F9C901;}
	.st2{fill:#58EF89;}
	.st3{fill:#F7931E;}
</style>
<path class="st0" d="M255,346H91.7c-48.6,0-88.1-39.4-88.1-88.1V94.6c0-48.6,39.4-88.1,88.1-88.1H255c48.6,0,88.1,39.4,88.1,88.1
	v163.3C343.1,306.5,303.7,346,255,346z"/>
<g>
	<g>
		<path class="st1" d="M293.1,129.3l-39.8-16.7l-0.1-0.2c-0.1-0.1-0.2-0.1-0.3,0L195.3,164l3.9,5.2c0.1,0.1,0.1,0.1,0.1,0.2l0,0l0,0
			l0,0l36.7,23.2l4.5,19.8c0.9,4,4.6,6.4,8.2,5.4l-6.4-28.4c-0.2-0.9-0.7-1.7-1.4-2.1l0,0c-0.1-0.1-0.1-0.1-0.1-0.2
			c-0.1-0.1-0.2-0.2-0.3-0.2l-25-15.8l59.6,5.4c0.8,0.1,1.5-0.4,1.9-1.1c0.1-0.2,0.2-0.3,0.2-0.4l15.8-37.3c0.1-0.2,0.1-0.4,0-0.6
			l0.3,0.2l1.5-4.2C295.1,131.4,294.4,129.8,293.1,129.3z M250.8,123.7l17.9,44.7l-61.6-5.6L250.8,123.7z M286.9,134.5l-12.6,29.8
			l-16.9-42.2L286.9,134.5L286.9,134.5z"/>
	</g>
	<g>
		<path class="st1" d="M147.3,169.7C147.3,169.6,147.3,169.6,147.3,169.7L147.3,169.7L147.3,169.7c0.1-0.1,0.1-0.1,0.1-0.2l3.9-5.2
			l-57.6-51.6h-0.1l-0.1-0.2l-40.1,16.8c-1.3,0.5-1.9,2.1-1.4,3.5l1.5,4.2l0.3-0.2c-0.1,0.2-0.1,0.4,0,0.6l15.8,37.3
			c0,0.1,0.1,0.1,0.1,0.2c0.2,1.1,1.1,1.8,2,1.7l59.6-5.4l-25,15.8c-0.1,0.1-0.2,0.2-0.3,0.2s-0.1,0.1-0.1,0.2l0,0
			c-0.7,0.5-1.1,1.2-1.4,2.1l-6.7,28.6c3.6,1,7.3-1.4,8.2-5.4l4.5-19.8L147.3,169.7z M139.5,163.2l-61.6,5.6L95.7,124L139.5,163.2z
			 M59.7,134.5l29.4-12.4l-16.9,42.2L59.7,134.5L59.7,134.5z"/>
	</g>
	<g>
		<path class="st1" d="M213.2,192.1L194.1,165c-3.4,2.8-4.1,7.9-1.4,11.6l11.2,15.9c-0.8,0-1.6,0.1-2.6,0.4l-28.8,10.1l-28-9.8
			c-0.6-0.2-1.1-0.3-1.7-0.4l11.4-16.2c2.6-3.6,1.9-8.8-1.4-11.6l-19.1,27.2c-2.1,3-2,7.1-0.1,9.9c0,0.1,0.1,0.2,0.1,0.2l35.9,67.3
			c0.8,1.5,2.3,2.3,3.9,2.2c1.5,0.1,3.1-0.7,3.9-2.2l36.4-68.3c0.1-0.3,0.2-0.5,0.3-0.8C215.2,197.8,215,194.6,213.2,192.1z
			 M165,208.9c3,1.1,6.1,0,8-2.4c1.9,2.2,4.9,3.1,7.8,2.1l24.7-8.6l-12.4,23.3l-19.7,6.5l-19.5-6.4l-12.1-22.6L165,208.9z
			 M173.4,260.2l-14.6-27.4l7.1,2.3c3,1,6.2-0.2,7.9-2.8c1.7,2.4,4.7,3.6,7.6,2.6l6.8-2.2L173.4,260.2z"/>
	</g>
	<g>
		<path class="st1" d="M133.3,88.9l21.5-3.2l9.7,14.2c-2.2,1.3-4.1,3.8-5.4,5.8c-0.4,0.8-0.7,1.5-0.9,2.2c-0.3,0.8-0.5,1.5-0.8,2.2
			c-0.1,0.6,0,1.2,0.1,1.7l0,0l-1.9,0.6c-2.3,0.2-4.4,2-5.2,4.7l-7.1,24l0,0c-0.5,1.7-0.2,3.6,0.8,5.1l26.2,37.3
			c0.8,1.1,1.9,1.5,3,1.2c0.8,0.2,1.7-0.2,2.3-0.9l26.8-38.1c1.4-1.9,1.4-4.3,0.4-6.3l-5.9-21.8c-0.6-2.2-1.9-3.8-3.6-4.5v-0.1
			l-5-1.7c0.1-0.5,0.1-1,0.1-1.5c-0.2-0.7-0.4-1.4-0.8-2.2s-0.6-1.5-0.9-2.2c-1.3-2.1-3.2-4.5-5.4-5.8l9.7-14.2l21.5,3.2v-0.2
			c0.2-2.5-1.2-4.7-3.3-5l-16.9-2.5c-1.4-0.5-3.1,0-4.1,1.4L177,99.1l0.1,0.1c-0.1,0.1-0.4,0.2-0.5,0.2c-1.9,1.1-1.6,4.2-1.9,6.5
			c-0.1,0.6-0.1,1.3-0.1,2c0,1.4,0.2,2.7,0.6,3.9c0.2,0.8,0.6,1.7,1.1,2.3c0.9,1.4,2,2.5,3.4,2.9c0.3,0.1,0.6,0.2,0.9,0.2l10.2,3.3
			l5.5,20.5l-23,32.7l-22.5-32l6.4-21.7l8.5-2.8c0.3-0.1,0.5-0.2,0.8-0.2c0.6-0.2,1.2-0.6,1.7-1c1.8-1.3,2.9-3.5,3.1-5.8
			c0.1-0.8,0.2-1.6,0.2-2.4c0-0.7-0.1-1.3-0.1-2c-0.3-2.2-0.1-5.3-1.9-6.5c-0.1-0.1-0.4-0.2-0.5-0.2l0.1-0.1l-11.3-16.6
			c-1-1.5-2.6-2-4.1-1.4l-16.9,2.5c-2.1,0.3-3.5,2.5-3.3,5L133.3,88.9z"/>
	</g>
</g>
</svg>
