<?xml version="1.0" encoding="utf-8"?>
<!-- Generator: Adobe Illustrator 25.2.1, SVG Export Plug-In . SVG Version: 6.00 Build 0)  -->
<svg version="1.1" id="Capa_1" xmlns="http://www.w3.org/2000/svg" xmlns:xlink="http://www.w3.org/1999/xlink" x="0px" y="0px"
	 viewBox="0 0 346.2 343.8" style="enable-background:new 0 0 346.2 343.8;" xml:space="preserve">
<style type="text/css">
	.st0{fill:#58EF89;}
	.st1{fill:#FFFFFF;}
	.st2{fill:#F9C901;}
	.st3{fill:#F7931E;}
</style>
<g>
	<path class="st1" d="M174,202.2c-2,2.4-5.1,3.5-8.2,2.4l-23.8-8l12.4,22.6l20,6.5l20.2-6.5l12.8-23.3l-25.3,8.6
		C179.1,205.3,176,204.4,174,202.2z"/>
	<path class="st1" d="M174.7,227.9c-1.7,2.5-5,3.8-8.1,2.8l-7.2-2.3l15,27.5l15.1-27.5l-6.9,2.2
		C179.5,231.5,176.4,230.3,174.7,227.9z"/>
	<polygon class="st1" points="76.4,164.5 139.6,158.9 94.8,119.6 	"/>
	<polygon class="st1" points="57.9,130.1 70.7,159.9 88,117.8 	"/>
	<polygon class="st1" points="277.7,159.9 290.6,130.1 260.4,117.8 	"/>
	<polygon class="st1" points="208.8,158.6 271.9,164.1 253.6,119.4 	"/>
	<path class="st1" d="M174.3,0C79.4,0,2.4,77,2.4,171.9s77,171.9,171.9,171.9s171.9-77,171.9-171.9S269.3,0,174.3,0z M136.6,79.1
		l17.4-2.5c1.5-0.6,3.1-0.1,4.1,1.4l11.6,16.6l-0.1,0.1c0.2,0.1,0.4,0.1,0.5,0.2c1.9,1.1,1.7,4.3,2,6.5c0.1,0.7,0.2,1.3,0.2,2
		c0,0.8-0.1,1.6-0.2,2.4c-0.2,2.3-1.4,4.4-3.2,5.8c-0.5,0.5-1.2,0.8-1.8,1c-0.3,0.1-0.5,0.2-0.8,0.2l-8.7,2.8l-6.5,21.8l23,32
		l23.6-32.7l-5.6-20.5l-10.4-3.3c-0.3,0-0.6-0.2-0.9-0.2c-1.4-0.5-2.5-1.5-3.5-2.9c-0.5-0.7-0.9-1.5-1.2-2.3
		c-0.4-1.2-0.6-2.5-0.6-3.9c0-0.7,0.1-1.4,0.2-2c0.3-2.2,0.1-5.3,2-6.5c0.2-0.1,0.4-0.1,0.5-0.2l-0.1-0.1l11.6-16.6
		c1-1.4,2.7-2,4.1-1.4l17.4,2.5c2.2,0.3,3.6,2.6,3.4,5v0.2l-22-3.2l-9.9,14.2c2.2,1.3,4.2,3.7,5.5,5.8c0.3,0.8,0.6,1.5,0.9,2.2
		c0.3,0.8,0.5,1.5,0.8,2.2c0.1,0.5,0.1,1-0.1,1.5l5.1,1.7v0.1c1.7,0.8,3.1,2.3,3.7,4.5l6,21.8c1.1,2,1,4.4-0.4,6.3l-27.4,38.1
		c-0.6,0.8-1.5,1.1-2.4,0.9c-1.2,0.3-2.3-0.1-3.1-1.2L144.5,142c-1.1-1.5-1.4-3.5-0.8-5.1l7.2-24c0.8-2.7,3-4.5,5.4-4.7l1.9-0.6
		c-0.2-0.5-0.2-1.1-0.2-1.7c0.2-0.7,0.5-1.4,0.8-2.2c0.2-0.8,0.5-1.5,0.9-2.2c1.3-2,3.3-4.5,5.5-5.8l-9.9-14.2l-22,3.2l-0.1-0.5
		C133,81.6,134.4,79.4,136.6,79.1z M105.4,208.4c-0.9,4-4.7,6.4-8.4,5.4l6.8-28.6c0.2-0.9,0.7-1.6,1.4-2.1c0.1-0.1,0.1-0.1,0.2-0.2
		c0.1-0.1,0.2-0.2,0.3-0.2l25.6-15.8l-61.1,5.4c-1,0.2-1.8-0.6-2.1-1.7c0-0.1-0.1-0.1-0.1-0.2l-16.1-37.3c-0.2-0.2-0.1-0.4,0-0.6
		l-0.3,0.2l-1.5-4.2c-0.5-1.4,0.2-3,1.5-3.5l41-16.8l0.1,0.2h0.1l59,51.6l-4,5.2c0,0.1-0.1,0.1-0.2,0.2L110,188.6L105.4,208.4z
		 M216.1,196.2c-0.1,0.3-0.2,0.5-0.3,0.8l-37.3,68.2c-0.8,1.5-2.5,2.3-4,2.2c-1.6,0.1-3.1-0.7-4-2.2L133.7,198
		c0-0.1-0.1-0.2-0.1-0.2c-2-2.9-2.1-6.9,0.1-9.9l19.6-27.2c3.4,2.7,4.1,8,1.5,11.5L143,188.4c0.6,0.1,1.2,0.1,1.8,0.4l28.7,9.8
		l29.5-10.1c0.9-0.3,1.8-0.4,2.6-0.4l-11.4-15.9c-2.7-3.6-2-8.8,1.5-11.5l19.5,27.1C216.9,190.3,217.2,193.5,216.1,196.2z
		 M297.1,132.8l-0.3-0.2c0.1,0.2,0.1,0.4,0,0.6l-16.1,37.4c0,0.1-0.2,0.3-0.2,0.4c-0.4,0.8-1.1,1.2-1.9,1.1l-61.1-5.4l25.6,15.8
		c0.1,0.1,0.2,0.2,0.3,0.2c0.1,0.1,0.1,0.1,0.2,0.2c0.7,0.4,1.2,1.2,1.4,2.1l6.6,28.4c-3.7,1-7.5-1.4-8.4-5.4l-4.6-19.8l-37.6-23.2
		c-0.1-0.1-0.1-0.1-0.2-0.1l-4-5.2l59-51.6c0.1-0.1,0.2-0.1,0.3,0l0.1,0.2L297,125c1.3,0.5,2,2.1,1.7,3.7L297.1,132.8z"/>
</g>
</svg>
