<?xml version="1.0" encoding="utf-8"?>
<!-- Generator: Adobe Illustrator 25.2.1, SVG Export Plug-In . SVG Version: 6.00 Build 0)  -->
<svg version="1.1" id="Capa_1" xmlns="http://www.w3.org/2000/svg" xmlns:xlink="http://www.w3.org/1999/xlink" x="0px" y="0px"
	 viewBox="0 0 346.8 352.3" style="enable-background:new 0 0 346.8 352.3;" xml:space="preserve">
<style type="text/css">
	.st0{fill:#FFFFFF;}
	.st1{fill:#F9C901;}
	.st2{fill:#58EF89;}
	.st3{fill:#F7931E;}
</style>
<g>
	<path class="st0" d="M173.1,209.5c-1.9,2.4-5,3.5-8,2.4l-23.2-8l12.1,22.6l19.5,6.4l19.7-6.5l12.4-23.3l-24.7,8.5
		C178,212.5,175,211.6,173.1,209.5z"/>
	<polygon class="st0" points="59.7,137.4 72.3,167.2 89.1,125 	"/>
	<path class="st0" d="M173.7,235.2c-1.6,2.6-4.9,3.8-7.9,2.8l-7.1-2.3l14.6,27.4l14.7-27.5l-6.8,2.2
		C178.5,238.8,175.5,237.6,173.7,235.2z"/>
	<polygon class="st0" points="77.8,171.7 139.5,166.1 95.7,126.9 	"/>
	<polygon class="st0" points="207,165.8 268.6,171.4 250.8,126.7 	"/>
	<polygon class="st0" points="274.3,167.2 286.9,137.4 257.4,125 	"/>
	<path class="st0" d="M255,9.4H91.7C43.1,9.4,3.7,48.9,3.7,97.5v163.3c0,48.6,39.4,88.1,88.1,88.1H255c48.7,0,88.1-39.4,88.1-88.1
		V97.5C343.1,48.9,303.7,9.4,255,9.4z M136.5,86.3l17-2.5c1.4-0.6,3.1-0.1,4,1.4l11.3,16.6l-0.1,0.1c0.1,0.1,0.4,0.2,0.5,0.2
		c1.9,1.1,1.6,4.3,2,6.5c0.1,0.7,0.1,1.3,0.1,2c0,0.8-0.1,1.7-0.2,2.4c-0.2,2.3-1.3,4.4-3.1,5.8c-0.5,0.5-1.1,0.8-1.7,1
		c-0.3,0.1-0.5,0.1-0.8,0.2l-8.5,2.8l-6.4,21.7l22.5,32l23-32.7l-5.5-20.5l-10.2-3.3c-0.3,0-0.6-0.1-0.9-0.2
		c-1.4-0.5-2.5-1.5-3.4-2.9c-0.5-0.7-0.9-1.5-1.1-2.3c-0.4-1.2-0.6-2.5-0.6-3.9c0-0.7,0.1-1.3,0.1-2c0.3-2.2,0.1-5.3,1.9-6.4
		c0.1-0.1,0.4-0.2,0.5-0.2L177,102l11.3-16.6c1-1.4,2.6-2,4.1-1.4l16.9,2.5c2.1,0.3,3.5,2.5,3.3,5v0.2l-21.5-3.2l-9.7,14.2
		c2.2,1.3,4.1,3.7,5.4,5.8c0.3,0.8,0.6,1.5,0.9,2.2c0.3,0.8,0.5,1.5,0.8,2.2c0.1,0.5,0.1,1-0.1,1.5l5,1.7v0.1c1.7,0.8,3,2.3,3.6,4.5
		l5.9,21.7c1,2,1,4.4-0.4,6.3l-26.8,38.1c-0.6,0.8-1.5,1.1-2.3,0.9c-1.1,0.3-2.2-0.1-3-1.2l-26.2-37.3c-1.1-1.5-1.3-3.5-0.8-5.1
		l7.1-24c0.8-2.7,2.9-4.5,5.2-4.7l1.9-0.6c-0.1-0.5-0.2-1.1-0.1-1.7c0.2-0.7,0.4-1.4,0.8-2.2c0.2-0.8,0.5-1.5,0.9-2.2
		c1.3-2,3.2-4.5,5.4-5.8l-9.7-14.2l-21.5,3.1l-0.1-0.5C133,88.9,134.4,86.6,136.5,86.3z M106.1,215.6c-0.9,4-4.6,6.4-8.2,5.4
		l6.7-28.6c0.2-0.9,0.7-1.6,1.4-2.1c0.1-0.1,0.1-0.1,0.1-0.2c0.1-0.1,0.2-0.1,0.3-0.2l25-15.8l-59.6,5.4c-1,0.2-1.8-0.6-2-1.6
		c0-0.1-0.1-0.1-0.1-0.2l-15.7-37.3c-0.1-0.2-0.1-0.5,0-0.6l-0.3,0.2l-1.5-4.2c-0.5-1.4,0.2-3,1.4-3.5l40-16.8l0.1,0.2h0.1
		l57.6,51.6l-3.9,5.2c0,0.1-0.1,0.1-0.1,0.2l-36.7,23.2L106.1,215.6z M214.2,203.5c-0.1,0.3-0.2,0.5-0.3,0.8l-36.4,68.2
		c-0.8,1.5-2.4,2.3-3.9,2.2c-1.6,0.1-3.1-0.7-3.9-2.2l-35.9-67.3c0-0.1-0.1-0.1-0.1-0.2c-2-2.8-2-6.9,0.1-9.9l19.1-27.2
		c3.3,2.7,4,8,1.4,11.6l-11.4,16.2c0.6,0.1,1.1,0.2,1.7,0.4l28,9.8l28.8-10c0.9-0.3,1.7-0.4,2.6-0.4l-11.2-15.9
		c-2.6-3.6-1.9-8.8,1.4-11.6l19,27.1C215,197.5,215.2,200.8,214.2,203.5z M294.8,135.9l-1.5,4.2l-0.3-0.1c0.1,0.2,0.1,0.4,0,0.6
		l-15.8,37.3c0,0.1-0.2,0.3-0.2,0.5c-0.4,0.8-1.1,1.2-1.9,1.1l-59.6-5.4l25,15.8c0.1,0.1,0.2,0.2,0.3,0.2c0.1,0.1,0.1,0.1,0.1,0.1
		c0.7,0.5,1.1,1.2,1.4,2.1l6.5,28.4c-3.6,1-7.3-1.4-8.2-5.4l-4.5-19.8l-36.7-23.2c-0.1-0.1-0.1-0.1-0.1-0.2l-3.9-5.2l57.6-51.6
		c0.1-0.1,0.2-0.1,0.3,0l0.1,0.2l39.8,16.7C294.4,132.7,295.1,134.3,294.8,135.9z"/>
</g>
</svg>
