<?xml version="1.0" encoding="utf-8"?>
<!-- Generator: Adobe Illustrator 25.2.1, SVG Export Plug-In . SVG Version: 6.00 Build 0)  -->
<svg version="1.1" id="Capa_1" xmlns="http://www.w3.org/2000/svg" xmlns:xlink="http://www.w3.org/1999/xlink" x="0px" y="0px"
	 viewBox="0 0 541 191.1" style="enable-background:new 0 0 541 191.1;" xml:space="preserve">
<style type="text/css">
	.st0{fill:#58EF89;}
	.st1{fill:#FFFFFF;}
	.st2{fill:#F9C901;}
	.st3{fill:#F7931E;}
</style>
<g>
	<g>
		<path class="st2" d="M258.3,48.6l-40.8-16.7l-0.1-0.2c-0.1-0.1-0.2-0.1-0.3,0l-59,51.6l4,5.2c0.1,0.1,0.1,0.1,0.2,0.2l0,0l0,0l0,0
			l37.6,23.2l4.6,19.8c0.9,4,4.7,6.4,8.4,5.4l-6.6-28.4c-0.2-0.9-0.7-1.7-1.4-2.1l0,0c-0.1-0.1-0.1-0.1-0.2-0.2
			c-0.1-0.1-0.2-0.2-0.3-0.2l-25.6-15.8l61.1,5.4c0.8,0.1,1.5-0.4,1.9-1.1c0.1-0.2,0.2-0.3,0.2-0.4l16.1-37.3c0.1-0.2,0.1-0.4,0-0.6
			l0.3,0.2l1.5-4.2C260.3,50.7,259.6,49.1,258.3,48.6z M214.9,43.1l18.3,44.7l-63.1-5.6L214.9,43.1z M251.9,53.8L239,83.6
			l-17.3-42.2L251.9,53.8L251.9,53.8z"/>
	</g>
	<g>
		<path class="st2" d="M108.8,89C108.8,89,108.8,89,108.8,89L108.8,89L108.8,89c0.1-0.1,0.2-0.1,0.2-0.2l4-5.2L54,32h-0.1l-0.1-0.2
			l-41,16.8c-1.3,0.5-2,2.1-1.5,3.5l1.5,4.2l0.3-0.2c-0.1,0.2-0.2,0.4,0,0.6l16.1,37.3c0,0.1,0.1,0.1,0.1,0.2
			c0.2,1.1,1.1,1.8,2.1,1.7l61.1-5.4L67,106.4c-0.2,0.1-0.2,0.2-0.3,0.2c-0.1,0.1-0.1,0.1-0.2,0.2l0,0c-0.7,0.5-1.2,1.2-1.4,2.1
			l-6.8,28.6c3.7,1,7.5-1.4,8.4-5.4l4.6-19.8L108.8,89z M100.8,82.5l-63.1,5.6l18.4-44.8L100.8,82.5z M19.2,53.8l30.1-12.4L32,83.6
			L19.2,53.8L19.2,53.8z"/>
	</g>
	<g>
		<path class="st2" d="M176.4,111.4l-19.5-27.1c-3.5,2.8-4.1,7.9-1.5,11.6l11.4,15.9c-0.8,0-1.7,0.1-2.6,0.4l-29.5,10.1l-28.7-9.8
			c-0.6-0.2-1.2-0.3-1.8-0.4L116,95.9c2.6-3.6,1.9-8.8-1.5-11.6l-19.6,27.2c-2.2,3-2.1,7.1-0.1,9.9c0,0.1,0.1,0.2,0.1,0.2l36.8,67.3
			c0.8,1.5,2.4,2.3,4,2.2c1.5,0.2,3.1-0.7,4-2.2l37.3-68.3c0.2-0.3,0.2-0.5,0.3-0.8C178.4,117.2,178.2,113.9,176.4,111.4z
			 M127,128.3c3.1,1.1,6.2,0,8.2-2.4c2,2.2,5.1,3.1,8,2.1l25.3-8.6l-12.8,23.3l-20.2,6.5l-20-6.4l-12.4-22.6L127,128.3z
			 M135.6,179.5l-15-27.4l7.2,2.3c3.1,1,6.4-0.2,8.1-2.8c1.8,2.4,4.8,3.6,7.8,2.6l6.9-2.2L135.6,179.5z"/>
	</g>
	<g>
		<path class="st2" d="M94.5,8.2l22-3.2l9.9,14.2c-2.2,1.3-4.2,3.8-5.5,5.8c-0.4,0.8-0.7,1.5-0.9,2.2c-0.3,0.8-0.5,1.5-0.8,2.2
			c-0.1,0.6,0,1.2,0.2,1.7l0,0l-1.9,0.6c-2.4,0.2-4.5,2-5.4,4.7l-7.2,24l0,0c-0.5,1.7-0.2,3.6,0.8,5.1l26.8,37.3
			c0.8,1.1,1.9,1.5,3.1,1.2c0.8,0.2,1.8-0.2,2.4-0.9l27.4-38.1c1.4-1.9,1.5-4.3,0.4-6.3l-6-21.8c-0.6-2.2-2-3.8-3.7-4.5v-0.1
			l-5.1-1.7c0.2-0.5,0.2-1,0.1-1.5c-0.2-0.7-0.5-1.4-0.8-2.2c-0.3-0.8-0.6-1.5-0.9-2.2c-1.3-2.1-3.3-4.5-5.5-5.8l9.9-14.2l22,3.2
			V7.9c0.2-2.5-1.2-4.7-3.4-5l-17.4-2.5c-1.5-0.5-3.1,0-4.1,1.4l-11.6,16.6l0.1,0.1c-0.2,0.1-0.4,0.2-0.5,0.2
			c-1.9,1.1-1.7,4.2-2,6.5c-0.1,0.6-0.2,1.3-0.2,2c0,1.4,0.2,2.7,0.6,3.9c0.2,0.8,0.6,1.7,1.2,2.3c0.9,1.4,2.1,2.5,3.5,2.9
			c0.3,0.1,0.6,0.2,0.9,0.2l10.4,3.3l5.6,20.5l-23.6,32.7l-23-32l6.5-21.8l8.7-2.8c0.3-0.1,0.5-0.2,0.8-0.2c0.6-0.2,1.2-0.6,1.8-1
			c1.8-1.3,3-3.5,3.2-5.8c0.2-0.8,0.2-1.6,0.2-2.4c0-0.7-0.1-1.3-0.2-2c-0.3-2.2-0.1-5.3-2-6.5c-0.2-0.1-0.4-0.2-0.5-0.2l0.1-0.1
			L119.4,1.7c-1-1.5-2.7-2-4.1-1.4L97.9,2.7c-2.2,0.3-3.6,2.5-3.4,5L94.5,8.2z"/>
	</g>
</g>
<g>
	<g>
		<path d="M303.1,82.6c6,1,11,3.8,11,9.8c0,4.2-2.4,7.5-6.1,9.5c-3.3,1.8-6.5,2.4-10.9,2.4h-15.5v-1.7c5.4-0.5,5.7-1,5.7-5.9V71.9
			c0-5.1-0.6-5.5-5.7-6v-1.7H298c4.7,0,7.7,0.8,9.7,2.2c2.2,1.5,3.7,3.8,3.7,6.9C311.4,79.1,306.6,81.7,303.1,82.6z M295.8,81.8
			c6.9,0,9.8-2.7,9.8-7.7c0-4.3-2.7-7.6-8.8-7.6c-1.8,0-2.9,0.2-3.5,0.6c-0.5,0.4-0.7,1-0.7,3v11.7H295.8z M292.6,96.5
			c0,4.4,1.1,5.5,5.5,5.5c4.9,0,9.7-2.6,9.7-9c0-6.3-4.5-9-12.2-9h-3V96.5z"/>
		<path d="M351.9,94.4c-0.4,1.6-2.1,7.9-2.7,9.8h-30.6v-1.7c5.9-0.4,6.3-1,6.3-6V72.2c0-5.5-0.7-5.8-5.4-6.2v-1.7h19.3
			c5.9,0,8.4-0.1,9.1-0.1c0.1,1.5,0.3,6.1,0.6,9.4l-1.9,0.3c-0.6-2.1-1.2-3.4-1.9-4.7c-1-2-2.5-2.5-6.2-2.5h-6c-2,0-2.1,0.2-2.1,2
			v13.6h7c4.7,0,5-0.9,5.8-5.1h2v12.7h-2c-0.8-4.4-1.3-5-5.9-5h-6.9V97c0,4.3,1.4,4.7,4.5,4.7h5.9c3.8,0,4.5-0.6,5.9-2.2
			c1.2-1.3,2.5-3.8,3.4-5.7L351.9,94.4z"/>
		<path d="M389,94.4c-0.4,1.6-2.1,7.9-2.7,9.8h-30.6v-1.7c5.9-0.4,6.3-1,6.3-6V72.2c0-5.5-0.7-5.8-5.4-6.2v-1.7h19.3
			c5.9,0,8.4-0.1,9.1-0.1c0.1,1.5,0.3,6.1,0.6,9.4l-1.9,0.3c-0.6-2.1-1.2-3.4-1.9-4.7c-1-2-2.5-2.5-6.2-2.5h-6c-2,0-2.1,0.2-2.1,2
			v13.6h7c4.7,0,5-0.9,5.8-5.1h2v12.7h-2c-0.8-4.4-1.3-5-5.9-5h-6.9V97c0,4.3,1.4,4.7,4.5,4.7h5.9c3.8,0,4.5-0.6,5.9-2.2
			c1.2-1.3,2.5-3.8,3.4-5.7L389,94.4z"/>
		<path d="M437.2,66c-5.2,0.5-5.7,0.8-5.7,6v24.7c0,5.2,0.6,5.3,5.7,5.9v1.7h-16.9v-1.7c5.2-0.6,5.7-0.7,5.7-5.9V84.3h-21.5v12.3
			c0,5.1,0.5,5.3,5.7,5.9v1.7h-16.8v-1.7c5.1-0.6,5.7-0.7,5.7-5.9V71.9c0-5.2-0.6-5.5-5.7-6v-1.7h16.8V66c-5,0.4-5.7,0.9-5.7,6v9.8
			h21.5v-9.8c0-5.1-0.7-5.5-5.7-6v-1.7h16.9V66z"/>
		<path d="M443.6,104.2v-1.7c5.2-0.6,5.7-0.8,5.7-6V72c0-5.3-0.5-5.5-5.7-6.1v-1.7h16.9V66c-5.2,0.6-5.7,0.8-5.7,6.1v24.4
			c0,5.3,0.5,5.5,5.7,6v1.7H443.6z"/>
		<path d="M505.8,66c-4.2,0.6-5.3,1.1-7.6,6.6c-1.7,4.1-10.4,24.7-13.5,32.3h-2.1C479,95,473.6,80.6,470,71.5
			c-1.8-4.6-2.8-5.2-6.7-5.5v-1.7h16V66c-4.7,0.5-4.9,1.2-4,3.5c1.6,4.5,6.2,16.7,10.1,26.9c3.3-7.9,7.5-18,10.5-25.7
			c1.4-3.6,0.6-4.1-4.5-4.7v-1.7h14.5V66z"/>
		<path d="M541,94.4c-0.4,1.6-2.1,7.9-2.7,9.8h-30.6v-1.7c5.9-0.4,6.3-1,6.3-6V72.2c0-5.5-0.7-5.8-5.4-6.2v-1.7h19.3
			c5.9,0,8.4-0.1,9.1-0.1c0.1,1.5,0.3,6.1,0.6,9.4l-1.9,0.3c-0.6-2.1-1.2-3.4-1.9-4.7c-1-2-2.5-2.5-6.2-2.5h-6c-2,0-2.1,0.2-2.1,2
			v13.6h7c4.7,0,5-0.9,5.8-5.1h2v12.7h-2c-0.8-4.4-1.3-5-5.9-5h-6.9V97c0,4.3,1.4,4.7,4.5,4.7h5.9c3.8,0,4.5-0.6,5.9-2.2
			c1.2-1.3,2.5-3.8,3.4-5.7L541,94.4z"/>
		<path d="M419,119.6h3V142h-3.1v-16.8l0.2,1l-5.6,12.7h-2.2l-5.6-12.4l0.2-1.3V142h-3.1v-22.4h3l6.7,14.8L419,119.6z"/>
		<path d="M427.4,119.6h3.2v3.1h-3.2V119.6z M427.4,126h3.2v16h-3.2V126z"/>
		<path d="M435.5,126h3.2v16h-3.2V126z M445.4,132.3c0-1.1-0.3-2-0.9-2.6s-1.4-0.9-2.5-0.9c-1.1,0-1.9,0.3-2.4,0.8
			c-0.6,0.5-0.9,1.3-0.9,2.3l-0.3-3.1c0.5-1,1.2-1.7,2-2.2c0.8-0.5,1.7-0.8,2.7-0.8c1.8,0,3.1,0.6,4.1,1.7c1,1.1,1.5,2.7,1.5,4.8
			v9.7h-3.2V132.3z"/>
		<path d="M453.5,119.6h3.2v3.1h-3.2V119.6z M453.5,126h3.2v16h-3.2V126z"/>
		<path d="M464.7,142c-0.8-0.2-1.6-0.5-2.4-0.8s-1.4-0.8-2-1.4l1.9-2.3c0.9,0.7,1.8,1.1,2.6,1.5s1.7,0.5,2.6,0.5
			c1.3,0,2.2-0.2,2.9-0.6c0.6-0.4,1-1,1-1.7c0-0.5-0.2-0.9-0.5-1.2c-0.3-0.3-0.8-0.4-1.3-0.5c-0.5-0.1-1.2-0.2-2.2-0.2
			c-0.1,0-0.2,0-0.3,0c-0.1,0-0.2,0-0.3,0c0,0-0.1,0-0.1,0c0,0-0.1,0-0.1,0c-1.1-0.1-2-0.2-2.7-0.5s-1.3-0.6-1.8-1.2
			c-0.5-0.6-0.7-1.5-0.7-2.6s0.2-2.1,0.7-2.8c0.5-0.7,1.2-1.3,2.1-1.7c0.9-0.4,2.1-0.6,3.5-0.6c0.9,0,1.7,0.1,2.4,0.2
			c0.8,0.2,1.5,0.4,2.2,0.7c0.7,0.3,1.4,0.7,2,1.1l-1.9,2.3c-0.8-0.5-1.6-0.9-2.4-1.2c-0.8-0.3-1.6-0.4-2.3-0.4
			c-1.1,0-1.9,0.2-2.5,0.5c-0.5,0.4-0.8,0.9-0.8,1.6c0,0.4,0.2,0.8,0.5,1c0.3,0.2,0.7,0.4,1.2,0.4c0.5,0.1,1.1,0.1,2,0.2
			c0.1,0,0.1,0,0.2,0c0.1,0,0.1,0,0.2,0c0,0,0.1,0,0.1,0s0.1,0,0.1,0c1.1,0.1,2.1,0.2,2.9,0.4c0.8,0.2,1.5,0.7,2,1.3
			c0.5,0.7,0.8,1.6,0.8,2.9c0,1.1-0.3,2.1-0.8,2.9s-1.3,1.3-2.3,1.7c-1,0.4-2.3,0.6-3.8,0.6C466.4,142.2,465.5,142.1,464.7,142z"/>
		<path d="M477.1,126h7.4v2.8h-7.4V126z M479.7,141c-0.6-0.7-0.9-1.8-0.9-3.2v-16.5h3.2v16.5c0,0.4,0.1,0.7,0.2,0.9
			c0.2,0.2,0.4,0.3,0.7,0.3h1.5v3h-1.9C481.3,142.1,480.3,141.7,479.7,141z"/>
		<path d="M488.9,126h3.2v16h-3.2V126z M496.8,129.1c-0.4-0.2-0.9-0.3-1.5-0.3c-1,0-1.8,0.3-2.4,0.8c-0.6,0.5-0.8,1.3-0.8,2.3
			l-0.3-3.1c0.5-1,1.2-1.7,2-2.2c0.8-0.5,1.7-0.8,2.6-0.8c0.7,0,1.4,0.1,2,0.3s1.1,0.5,1.6,0.9l-2.1,2.8
			C497.6,129.5,497.2,129.2,496.8,129.1z"/>
		<path d="M500.9,126h3.3l5,13.9l-1.8,3.4L500.9,126z M515.4,126l-7,19.7c-0.3,0.7-0.6,1.3-1,1.7c-0.4,0.4-0.9,0.7-1.5,0.9
			s-1.3,0.3-2.2,0.3h-0.6v-3h0.6c0.6,0,1.1-0.1,1.4-0.4c0.4-0.2,0.7-0.6,0.9-1.2l6-18H515.4z"/>
	</g>
</g>
</svg>
