<?xml version="1.0" encoding="utf-8"?>
<!-- Generator: Adobe Illustrator 25.2.1, SVG Export Plug-In . SVG Version: 6.00 Build 0)  -->
<svg version="1.1" id="Capa_1" xmlns="http://www.w3.org/2000/svg" xmlns:xlink="http://www.w3.org/1999/xlink" x="0px" y="0px"
	 viewBox="0 0 258.1 199.1" style="enable-background:new 0 0 258.1 199.1;" xml:space="preserve">
<style type="text/css">
	.st0{fill:#58EF89;}
	.st1{fill:#FFFFFF;}
	.st2{fill:#F9C901;}
	.st3{fill:#F7931E;}
</style>
<g>
	<g>
		<path class="st1" d="M251.4,52.8L210.6,36l-0.1-0.2c-0.1-0.1-0.2-0.1-0.3,0l-59,51.6l4,5.2c0.1,0.1,0.1,0.1,0.2,0.2l0,0l0,0l0,0
			l37.6,23.2l4.6,19.8c0.9,4,4.7,6.4,8.4,5.4l-6.6-28.4c-0.2-0.9-0.7-1.7-1.4-2.1l0,0c-0.1-0.1-0.1-0.1-0.2-0.2
			c-0.1-0.1-0.2-0.2-0.3-0.2l-25.6-15.8l61.1,5.4c0.8,0.1,1.5-0.4,1.9-1.1c0.1-0.2,0.2-0.3,0.2-0.4l16.1-37.3c0.1-0.2,0.1-0.4,0-0.6
			l0.3,0.2l1.5-4.2C253.3,54.9,252.7,53.3,251.4,52.8z M207.9,47.2l18.3,44.7l-63.1-5.6L207.9,47.2z M245,57.9l-12.9,29.8
			l-17.3-42.2L245,57.9L245,57.9z"/>
	</g>
	<g>
		<path class="st1" d="M101.9,93.2C101.9,93.1,101.9,93.1,101.9,93.2L101.9,93.2L101.9,93.2c0.1-0.1,0.2-0.1,0.2-0.2l4-5.2l-59-51.6
			H47L46.9,36l-41,16.8c-1.3,0.5-2,2.1-1.5,3.5L6,60.5l0.3-0.2c-0.1,0.2-0.2,0.4,0,0.6l16.1,37.3c0,0.1,0.1,0.1,0.1,0.2
			c0.2,1.1,1.1,1.8,2.1,1.7l61.1-5.4l-25.6,15.8c-0.2,0.1-0.2,0.2-0.3,0.2c-0.1,0.1-0.1,0.1-0.2,0.2l0,0c-0.7,0.5-1.2,1.2-1.4,2.1
			l-6.8,28.6c3.7,1,7.5-1.4,8.4-5.4l4.6-19.8L101.9,93.2z M93.9,86.7l-63.1,5.6l18.4-44.8L93.9,86.7z M12.3,57.9l30.1-12.4
			L25.1,87.7L12.3,57.9L12.3,57.9z"/>
	</g>
	<g>
		<path class="st1" d="M169.5,115.5l-19.5-27.1c-3.5,2.8-4.1,7.9-1.5,11.6l11.4,15.9c-0.8,0-1.7,0.1-2.6,0.4l-29.5,10.1l-28.7-9.8
			c-0.6-0.2-1.2-0.3-1.8-0.4l11.7-16.2c2.6-3.6,1.9-8.8-1.5-11.6L88,115.7c-2.2,3-2.1,7.1-0.1,9.9c0,0.1,0.1,0.2,0.1,0.2l36.8,67.3
			c0.8,1.5,2.4,2.3,4,2.2c1.5,0.2,3.1-0.7,4-2.2l37.3-68.2c0.2-0.3,0.2-0.5,0.3-0.8C171.5,121.3,171.3,118.1,169.5,115.5z
			 M120.1,132.4c3.1,1.1,6.2,0,8.2-2.4c2,2.2,5.1,3.1,8,2.1l25.3-8.6l-12.8,23.3l-20.2,6.5l-20-6.4l-12.4-22.6L120.1,132.4z
			 M128.7,183.6l-15-27.4l7.2,2.3c3.1,1,6.4-0.2,8.1-2.8c1.8,2.4,4.8,3.6,7.8,2.6l6.9-2.2L128.7,183.6z"/>
	</g>
	<g>
		<path class="st1" d="M87.6,12.3l22-3.2l9.9,14.2c-2.2,1.3-4.2,3.8-5.5,5.8c-0.4,0.8-0.7,1.5-0.9,2.2c-0.3,0.8-0.5,1.5-0.8,2.2
			c-0.1,0.6,0,1.2,0.2,1.7l0,0l-1.9,0.6c-2.4,0.2-4.5,2-5.4,4.7l-7.2,24l0,0c-0.5,1.7-0.2,3.6,0.8,5.1l26.8,37.3
			c0.8,1.1,1.9,1.5,3.1,1.2c0.8,0.2,1.8-0.2,2.4-0.9l27.4-38.1c1.4-1.9,1.5-4.3,0.4-6.3l-6-21.8c-0.6-2.2-2-3.8-3.7-4.5v-0.1
			l-5.1-1.7c0.2-0.5,0.2-1,0.1-1.5c-0.2-0.7-0.5-1.4-0.8-2.2c-0.3-0.8-0.6-1.5-0.9-2.2c-1.3-2.1-3.3-4.5-5.5-5.8L146.9,9l22,3.2V12
			c0.2-2.5-1.2-4.7-3.4-5l-17.4-2.5C146.7,4,145,4.5,144,6l-11.6,16.6l0.1,0.1c-0.2,0.1-0.4,0.2-0.5,0.2c-1.9,1.1-1.7,4.2-2,6.5
			c-0.1,0.6-0.2,1.3-0.2,2c0,1.4,0.2,2.7,0.6,3.9c0.2,0.8,0.6,1.7,1.2,2.3c0.9,1.4,2.1,2.5,3.5,2.9c0.3,0.1,0.6,0.2,0.9,0.2
			l10.4,3.3l5.6,20.5l-23.6,32.7l-23-32l6.5-21.8l8.7-2.8c0.3-0.1,0.5-0.2,0.8-0.2c0.6-0.2,1.2-0.6,1.8-1c1.8-1.3,3-3.5,3.2-5.8
			c0.2-0.8,0.2-1.6,0.2-2.4c0-0.7-0.1-1.3-0.2-2c-0.3-2.2-0.1-5.3-2-6.5c-0.2-0.1-0.4-0.2-0.5-0.2l0.1-0.1L112.5,5.8
			c-1-1.5-2.7-2-4.1-1.4L90.9,6.9c-2.2,0.3-3.6,2.5-3.4,5L87.6,12.3z"/>
	</g>
</g>
</svg>
