<?xml version="1.0" encoding="utf-8"?>
<!-- Generator: Adobe Illustrator 25.2.1, SVG Export Plug-In . SVG Version: 6.00 Build 0)  -->
<svg version="1.1" id="Capa_1" xmlns="http://www.w3.org/2000/svg" xmlns:xlink="http://www.w3.org/1999/xlink" x="0px" y="0px"
	 viewBox="0 0 518.8 168.8" style="enable-background:new 0 0 518.8 168.8;" xml:space="preserve">
<style type="text/css">
	.st0{fill:#FFFFFF;}
	.st1{fill:#F9C901;}
	.st2{fill:#58EF89;}
	.st3{fill:#F7931E;}
</style>
<g>
	<g>
		<path d="M43,36.6c12,2,22,7.6,22,19.6c0,8.4-4.8,15-12.2,19C46.2,78.8,39.8,80,31,80H0v-3.4c10.8-1,11.4-2,11.4-11.8V15.4
			c0-10.2-1.2-11-11.4-12V0h33c9.4,0,15.4,1.6,19.4,4.4c4.4,3,7.4,7.6,7.4,13.8C59.8,29.6,50,34.8,43,36.6z M28.6,35
			c13.8,0,19.6-5.4,19.6-15.4c0-8.6-5.4-15.2-17.6-15.2c-3.6,0-5.8,0.4-7,1.2c-1,0.8-1.4,2-1.4,6V35H28.6z M22.2,64.4
			c0,8.8,2.2,11,11,11c9.8,0,19.4-5.2,19.4-18c0-12.6-9-18-24.4-18h-6V64.4z"/>
		<path d="M140.6,60.2c-0.8,3.2-4.2,15.8-5.4,19.6H74v-3.4c11.8-0.8,12.6-2,12.6-12V15.8c0-11-1.4-11.6-10.8-12.4V0h38.6
			c11.8,0,16.8-0.2,18.2-0.2c0.2,3,0.6,12.2,1.2,18.8l-3.8,0.6c-1.2-4.2-2.4-6.8-3.8-9.4c-2-4-5-5-12.4-5h-12c-4,0-4.2,0.4-4.2,4V36
			h14c9.4,0,10-1.8,11.6-10.2h4v25.4h-4c-1.6-8.8-2.6-10-11.8-10H97.6v24.4c0,8.6,2.8,9.4,9,9.4h11.8c7.6,0,9-1.2,11.8-4.4
			c2.4-2.6,5-7.6,6.8-11.4L140.6,60.2z"/>
		<path d="M214.8,60.2c-0.8,3.2-4.2,15.8-5.4,19.6h-61.2v-3.4c11.8-0.8,12.6-2,12.6-12V15.8c0-11-1.4-11.6-10.8-12.4V0h38.6
			c11.8,0,16.8-0.2,18.2-0.2c0.2,3,0.6,12.2,1.2,18.8l-3.8,0.6c-1.2-4.2-2.4-6.8-3.8-9.4c-2-4-5-5-12.4-5h-12c-4,0-4.2,0.4-4.2,4V36
			h14c9.4,0,10-1.8,11.6-10.2h4v25.4h-4c-1.6-8.8-2.6-10-11.8-10h-13.8v24.4c0,8.6,2.8,9.4,9,9.4h11.8c7.6,0,9-1.2,11.8-4.4
			c2.4-2.6,5-7.6,6.8-11.4L214.8,60.2z"/>
		<path d="M311.4,3.4C301,4.4,300,5,300,15.4v49.4c0,10.4,1.2,10.6,11.4,11.8V80h-33.8v-3.4C288,75.4,289,75.2,289,64.8V40.2h-43
			v24.6c0,10.2,1,10.6,11.4,11.8V80h-33.6v-3.4c10.2-1.2,11.4-1.4,11.4-11.8V15.4c0-10.4-1.2-11-11.4-12V0h33.6v3.4
			c-10,0.8-11.4,1.8-11.4,12V35h43V15.4c0-10.2-1.4-11-11.4-12V0h33.8V3.4z"/>
		<path d="M324.2,79.8v-3.4c10.4-1.2,11.4-1.6,11.4-12V15.6c0-10.6-1-11-11.4-12.2V0H358v3.4c-10.4,1.2-11.4,1.6-11.4,12.2v48.8
			c0,10.6,1,11,11.4,12v3.4H324.2z"/>
		<path d="M448.6,3.4c-8.4,1.2-10.6,2.2-15.2,13.2c-3.4,8.2-20.8,49.4-27,64.6h-4.2c-7.4-19.8-18.2-48.6-25.4-66.8
			c-3.6-9.2-5.6-10.4-13.4-11V0h32v3.4c-9.4,1-9.8,2.4-8,7c3.2,9,12.4,33.4,20.2,53.8c6.6-15.8,15-36,21-51.4c2.8-7.2,1.2-8.2-9-9.4
			V0h29V3.4z"/>
		<path d="M518.8,60.2c-0.8,3.2-4.2,15.8-5.4,19.6h-61.2v-3.4c11.8-0.8,12.6-2,12.6-12V15.8c0-11-1.4-11.6-10.8-12.4V0h38.6
			c11.8,0,16.8-0.2,18.2-0.2c0.2,3,0.6,12.2,1.2,18.8l-3.8,0.6c-1.2-4.2-2.4-6.8-3.8-9.4c-2-4-5-5-12.4-5h-12c-4,0-4.2,0.4-4.2,4V36
			h14c9.4,0,10-1.8,11.6-10.2h4v25.4h-4c-1.6-8.8-2.6-10-11.8-10h-13.8v24.4c0,8.6,2.8,9.4,9,9.4h11.8c7.6,0,9-1.2,11.8-4.4
			c2.4-2.6,5-7.6,6.8-11.4L518.8,60.2z"/>
		<path d="M275,110.8h6v44.8h-6.2V122l0.4,2L264,149.4h-4.4l-11.2-24.8l0.4-2.6v33.6h-6.2v-44.8h6l13.4,29.6L275,110.8z"/>
		<path d="M291.6,110.8h6.4v6.2h-6.4V110.8z M291.6,123.6h6.4v32h-6.4V123.6z"/>
		<path d="M307.8,123.6h6.4v32h-6.4V123.6z M327.8,136c0-2.2-0.6-4-1.8-5.2s-2.8-1.8-5-1.8s-3.8,0.6-4.8,1.6c-1.2,1-1.8,2.6-1.8,4.6
			l-0.6-6.2c1-2,2.4-3.4,4-4.4s3.4-1.6,5.4-1.6c3.6,0,6.2,1.2,8.2,3.4s3,5.4,3,9.6v19.4H328V136H327.8z"/>
		<path d="M344,110.8h6.4v6.2H344V110.8z M344,123.6h6.4v32H344V123.6z"/>
		<path d="M366.2,155.4c-1.6-0.4-3.2-1-4.8-1.6s-2.8-1.6-4-2.8l3.8-4.6c1.8,1.4,3.6,2.2,5.2,3s3.4,1,5.2,1c2.6,0,4.4-0.4,5.8-1.2
			c1.2-0.8,2-2,2-3.4c0-1-0.4-1.8-1-2.4c-0.6-0.6-1.6-0.8-2.6-1s-2.4-0.4-4.4-0.4c-0.2,0-0.4,0-0.6,0s-0.4,0-0.6,0H370h-0.2
			c-2.2-0.2-4-0.4-5.4-1s-2.6-1.2-3.6-2.4s-1.4-3-1.4-5.2s0.4-4.2,1.4-5.6c1-1.4,2.4-2.6,4.2-3.4c1.8-0.8,4.2-1.2,7-1.2
			c1.8,0,3.4,0.2,4.8,0.4c1.6,0.4,3,0.8,4.4,1.4c1.4,0.6,2.8,1.4,4,2.2l-3.8,4.6c-1.6-1-3.2-1.8-4.8-2.4c-1.6-0.6-3.2-0.8-4.6-0.8
			c-2.2,0-3.8,0.4-5,1c-1,0.8-1.6,1.8-1.6,3.2c0,0.8,0.4,1.6,1,2s1.4,0.8,2.4,0.8c1,0.2,2.2,0.2,4,0.4c0.2,0,0.2,0,0.4,0
			c0.2,0,0.2,0,0.4,0h0.2h0.2c2.2,0.2,4.2,0.4,5.8,0.8c1.6,0.4,3,1.4,4,2.6c1,1.4,1.6,3.2,1.6,5.8c0,2.2-0.6,4.2-1.6,5.8
			s-2.6,2.6-4.6,3.4c-2,0.8-4.6,1.2-7.6,1.2C369.8,156,368,155.8,366.2,155.4z"/>
		<path d="M391,123.6h14.8v5.6H391V123.6z M396.2,153.4c-1.2-1.4-1.8-3.6-1.8-6.4v-33h6.4v33c0,0.8,0.2,1.4,0.4,1.8
			c0.4,0.4,0.8,0.6,1.4,0.6h3v6h-3.8C399.4,155.6,397.6,154.8,396.2,153.4z"/>
		<path d="M414.6,123.6h6.4v32h-6.4V123.6z M430.4,129.6c-0.8-0.4-1.8-0.6-3-0.6c-2,0-3.6,0.6-4.8,1.6c-1.2,1-1.6,2.6-1.6,4.6
			l-0.6-6.2c1-2,2.4-3.4,4-4.4s3.4-1.6,5.2-1.6c1.4,0,2.8,0.2,4,0.6s2.2,1,3.2,1.8l-4.2,5.6C432,130.4,431.4,129.8,430.4,129.6z"/>
		<path d="M438.8,123.6h6.6l10,27.8l-3.6,6.8L438.8,123.6z M467.6,123.6l-14,39.4c-0.6,1.4-1.2,2.6-2,3.4c-0.8,0.8-1.8,1.4-3,1.8
			s-2.6,0.6-4.4,0.6H443v-6h1.2c1.2,0,2.2-0.2,2.8-0.8c0.8-0.4,1.4-1.2,1.8-2.4l12-36H467.6z"/>
	</g>
</g>
</svg>
