<svg id="visual" viewBox="0 0 1920 1080" width="1920" height="1080" xmlns="http://www.w3.org/2000/svg" xmlns:xlink="http://www.w3.org/1999/xlink" version="1.1"><rect x="0" y="0" width="1920" height="1080" fill="#F9C901"></rect><path d="M0 934L64 925.7C128 917.3 256 900.7 384 913.8C512 927 640 970 768 992C896 1014 1024 1015 1152 997.7C1280 980.3 1408 944.7 1536 949.2C1664 953.7 1792 998.3 1856 1020.7L1920 1043L1920 1081L1856 1081C1792 1081 1664 1081 1536 1081C1408 1081 1280 1081 1152 1081C1024 1081 896 1081 768 1081C640 1081 512 1081 384 1081C256 1081 128 1081 64 1081L0 1081Z" fill="#ffffff" stroke-linecap="round" stroke-linejoin="miter"></path></svg>