<svg id="visual" viewBox="0 0 1920 1080" width="1920" height="1080" xmlns="http://www.w3.org/2000/svg" xmlns:xlink="http://www.w3.org/1999/xlink" version="1.1"><rect x="0" y="0" width="1920" height="1080" fill="#FFFFFF"></rect><path d="M0 693L80 723.3C160 753.7 320 814.3 480 813.5C640 812.7 800 750.3 960 725.3C1120 700.3 1280 712.7 1440 742.5C1600 772.3 1760 819.7 1840 843.3L1920 867L1920 1081L1840 1081C1760 1081 1600 1081 1440 1081C1280 1081 1120 1081 960 1081C800 1081 640 1081 480 1081C320 1081 160 1081 80 1081L0 1081Z" fill="#f9c901" stroke-linecap="round" stroke-linejoin="miter"></path></svg>