<?xml version="1.0" encoding="iso-8859-1"?>
<!-- Generator: Adobe Illustrator 19.0.0, SVG Export Plug-In . SVG Version: 6.00 Build 0)  -->
<svg width="50px" height="50px" version="1.1" id="Layer_1" xmlns="http://www.w3.org/2000/svg" xmlns:xlink="http://www.w3.org/1999/xlink" x="0px" y="0px"
	 viewBox="0 0 512 512" style="enable-background:new 0 0 512 512;" xml:space="preserve">
<g>
	<g>
		<g>
			<path d="M490.667,341.333v-256c0-23.558-19.109-42.667-42.667-42.667H64c-23.558,0-42.667,19.109-42.667,42.667v256
				C9.551,341.333,0,350.885,0,362.667v64c0,23.558,19.109,42.667,42.667,42.667h426.667c23.558,0,42.667-19.109,42.667-42.667v-64
				C512,350.885,502.449,341.333,490.667,341.333z M64,85.333h384v256H320c-5.658,0-11.084,2.248-15.085,6.248l-15.085,15.085
				h-67.66l-15.085-15.085c-4.001-4.001-9.427-6.248-15.085-6.248H64V85.333z M469.333,426.667H42.667V384h140.497l15.085,15.085
				c4.001,4.001,9.427,6.248,15.085,6.248h85.333c5.658,0,11.084-2.248,15.085-6.248L328.837,384h140.497V426.667z"/>
			<path d="M240.915,292.418c8.331,8.331,21.839,8.331,30.17,0l91.582-91.582v33.83c0,11.782,9.551,21.333,21.333,21.333
				c11.782,0,21.333-9.551,21.333-21.333v-85.333c0-0.715-0.043-1.411-0.106-2.098c-0.007-0.076-0.018-0.15-0.026-0.226
				c-0.758-7.4-5.086-13.133-10.811-16.3c-0.158-0.088-0.317-0.174-0.477-0.258c-0.393-0.205-0.793-0.396-1.198-0.577
				c-0.18-0.081-0.355-0.168-0.537-0.244c-0.534-0.222-1.079-0.417-1.629-0.596c-0.179-0.058-0.361-0.109-0.542-0.162
				c-0.529-0.157-1.062-0.295-1.602-0.412c-0.052-0.011-0.103-0.024-0.155-0.035c-1.806-0.378-3.663-0.525-5.524-0.426h-84.061
				c-11.782,0-21.333,9.551-21.333,21.333c0,11.782,9.551,21.333,21.333,21.333h33.83L256,247.163l-48.915-48.915
				c-8.331-8.331-21.839-8.331-30.17,0l-64,64c-8.331,8.331-8.331,21.839,0,30.17s21.839,8.331,30.17,0L192,243.503L240.915,292.418
				z"/>
		</g>
	</g>
</g>
<g>
</g>
<g>
</g>
<g>
</g>
<g>
</g>
<g>
</g>
<g>
</g>
<g>
</g>
<g>
</g>
<g>
</g>
<g>
</g>
<g>
</g>
<g>
</g>
<g>
</g>
<g>
</g>
<g>
</g>
</svg>
