<svg id="visual" viewBox="0 0 1920 1080" width="1920" height="1080" xmlns="http://www.w3.org/2000/svg" xmlns:xlink="http://www.w3.org/1999/xlink" version="1.1"><rect x="0" y="0" width="1920" height="1080" fill="#FFFFFF"></rect><path d="M0 756L80 779.5C160 803 320 850 480 856.2C640 862.3 800 827.7 960 809.3C1120 791 1280 789 1440 801.7C1600 814.3 1760 841.7 1840 855.3L1920 869L1920 1081L1840 1081C1760 1081 1600 1081 1440 1081C1280 1081 1120 1081 960 1081C800 1081 640 1081 480 1081C320 1081 160 1081 80 1081L0 1081Z" fill="#F9C901" stroke-linecap="round" stroke-linejoin="miter"></path></svg>